<svg width="206" height="46" viewBox="0 0 206 46" fill="none" xmlns="http://www.w3.org/2000/svg">
<path d="M20.8467 44.972L13.1641 37.2893L49.3157 1.17355C49.6747 0.814546 50.285 0.814546 50.644 1.17355L58.3267 8.85623C58.6857 9.21523 58.6857 9.82554 58.3267 10.1845L23.5393 44.972C22.8213 45.7259 21.6006 45.7259 20.8467 44.972Z" fill="#423BCA"/>
<path d="M9.86074 16.0723C9.78894 16.0723 9.68124 16.1082 9.64534 16.18L1.06515 24.7243C0.95745 24.832 0.95745 25.0474 1.06515 25.1551L20.8821 44.9721C21.2412 45.3311 21.7438 45.5465 22.2105 45.5465C22.6772 45.5465 23.1798 45.367 23.5388 44.9721C23.1798 45.3311 22.6772 45.5465 22.2105 45.5465C21.7079 45.5465 21.2412 45.367 20.8821 44.9721L13.1995 37.2894L22.2105 28.2784L10.0761 16.1441C10.0043 16.0723 9.93254 16.0723 9.86074 16.0723Z" fill="#26FFD0"/>
<path d="M22.2102 28.2793L13.1992 37.2903L20.8819 44.973C21.2409 45.332 21.7435 45.5474 22.2102 45.5474C22.7128 45.5474 23.1795 45.3679 23.5385 44.973L31.2212 37.2903L22.2102 28.2793Z" fill="#0AE2C8"/>
<path d="M26.4836 15.175C24.0065 17.6521 19.9497 17.6521 17.4726 15.175L17.4008 15.1032C14.9237 12.6261 14.9237 8.56934 17.4008 6.09222C19.8779 3.61509 23.9347 3.61509 26.4118 6.09222L26.4836 6.16402C28.9607 8.64114 28.9607 12.6979 26.4836 15.175Z" fill="#423BCA"/>
<path d="M90.7439 14.0625H95.3032L89.8464 29.3561H86.1845L84.8562 25.6583L83.2407 20.9554L81.6611 25.6583L80.3328 29.3561H76.7069L71.25 14.0625H75.8093L77.4967 19.4476L78.6096 23.5402L81.8406 14.0625H84.569L87.9078 23.6479L89.1643 19.4476L90.7439 14.0625Z" fill="#423BCA"/>
<path d="M100.834 18.334C102.88 18.334 104.424 18.9802 105.501 20.2367C106.542 21.4932 106.901 23.1087 106.506 25.0833H98.931C99.0387 25.5141 99.3259 25.8731 99.7567 26.1244C100.188 26.4116 100.726 26.5193 101.408 26.5193C102.449 26.5193 103.383 26.2321 104.208 25.6936L106.147 27.8835C104.783 29.0323 103.131 29.6067 101.193 29.6067C99.2541 29.6067 97.7104 29.1041 96.5975 28.0989C95.4846 27.0937 94.9102 25.7295 94.9102 24.0062C94.9102 22.3189 95.4487 20.9547 96.5616 19.9136C97.6027 18.8366 99.0387 18.334 100.834 18.334ZM100.941 21.3496C100.331 21.3496 99.8644 21.4932 99.5054 21.8163C99.1464 22.1394 98.931 22.5343 98.931 23.0728H102.844C102.844 22.5343 102.665 22.1035 102.306 21.8163C101.983 21.4932 101.516 21.3496 100.941 21.3496Z" fill="#423BCA"/>
<path d="M112.321 14.0625H108.336V29.3561H112.321V14.0625Z" fill="#423BCA"/>
<path d="M118.676 14.0625H114.691V29.3561H118.676V14.0625Z" fill="#423BCA"/>
<path d="M133.825 29.7147C131.276 29.7147 129.266 28.9967 127.758 27.5248C126.25 26.0528 125.496 24.1142 125.496 21.7089C125.496 19.2677 126.25 17.3291 127.794 15.893C129.337 14.4211 131.312 13.7031 133.753 13.7031C136.051 13.7031 137.989 14.4929 139.641 16.1084L137.164 18.6574C136.23 17.7958 135.117 17.365 133.861 17.365C132.604 17.365 131.599 17.7599 130.809 18.5497C130.055 19.3395 129.661 20.4165 129.661 21.7089C129.661 23.0013 130.055 24.0783 130.809 24.8681C131.563 25.6579 132.604 26.0528 133.861 26.0528C135.333 26.0528 136.553 25.5502 137.559 24.5809L139.892 27.2735C138.205 28.9249 136.194 29.7147 133.825 29.7147Z" fill="#423BCA"/>
<path d="M149.189 18.5489H152.636V29.319H149.189L148.974 28.0625C148.041 29.0677 146.892 29.5344 145.528 29.5344C144.056 29.5344 142.835 28.9959 141.866 27.9548C140.932 26.9137 140.43 25.5495 140.43 23.8981C140.43 22.2467 140.896 20.9183 141.866 19.8413C142.799 18.8002 144.02 18.2617 145.528 18.2617C146.928 18.2617 148.076 18.7643 148.974 19.7336L149.189 18.5489ZM144.989 25.6572C145.384 26.088 145.922 26.3034 146.533 26.3034C147.179 26.3034 147.682 26.088 148.076 25.6572C148.471 25.2264 148.687 24.652 148.687 23.9699C148.687 23.2878 148.471 22.7134 148.076 22.2826C147.682 21.8518 147.143 21.6364 146.533 21.6364C145.887 21.6364 145.384 21.8518 144.989 22.2826C144.594 22.7134 144.379 23.2878 144.379 23.9699C144.379 24.652 144.594 25.2264 144.989 25.6572Z" fill="#423BCA"/>
<path d="M161.507 18.334C162.619 18.334 163.553 18.7289 164.271 19.4828L162.655 22.283C162.117 21.924 161.578 21.7445 161.04 21.7445C160.394 21.7445 159.891 21.924 159.532 22.3189C159.173 22.7138 158.958 23.3241 158.958 24.1139V29.3554H154.973V18.5853H158.455L158.706 19.8777C159.388 18.8366 160.322 18.334 161.507 18.334Z" fill="#423BCA"/>
<path d="M182.83 18.334C184.876 18.334 186.42 18.9802 187.497 20.2367C188.538 21.4932 188.897 23.1087 188.502 25.0833H180.927C181.035 25.5141 181.322 25.8731 181.753 26.1244C182.184 26.4116 182.722 26.5193 183.404 26.5193C184.445 26.5193 185.379 26.2321 186.204 25.6936L188.143 27.8835C186.779 29.0323 185.127 29.6067 183.189 29.6067C181.25 29.6067 179.706 29.1041 178.594 28.0989C177.481 27.0937 176.906 25.7295 176.906 24.0062C176.906 22.3189 177.445 20.9547 178.558 19.9136C179.635 18.8366 181.071 18.334 182.83 18.334ZM182.973 21.3496C182.363 21.3496 181.896 21.4932 181.537 21.8163C181.178 22.1394 180.963 22.5343 180.963 23.0728H184.876C184.876 22.5343 184.697 22.1035 184.338 21.8163C184.015 21.4932 183.548 21.3496 182.973 21.3496Z" fill="#423BCA"/>
<path d="M169.904 18.334C171.95 18.334 173.494 18.9802 174.571 20.2367C175.612 21.4932 175.971 23.1087 175.576 25.0833H168.001C168.109 25.5141 168.396 25.8731 168.827 26.1244C169.258 26.4116 169.796 26.5193 170.478 26.5193C171.52 26.5193 172.453 26.2321 173.279 25.6936L175.217 27.8835C173.853 29.0323 172.202 29.6067 170.263 29.6067C168.324 29.6067 166.781 29.1041 165.668 28.0989C164.555 27.0937 163.98 25.7295 163.98 24.0062C163.98 22.3189 164.519 20.9547 165.632 19.9136C166.709 18.8366 168.145 18.334 169.904 18.334ZM170.048 21.3496C169.437 21.3496 168.971 21.4932 168.612 21.8163C168.253 22.1394 168.037 22.5343 168.037 23.0728H171.95C171.95 22.5343 171.771 22.1035 171.412 21.8163C171.089 21.4932 170.622 21.3496 170.048 21.3496Z" fill="#423BCA"/>
<path d="M196.866 18.334C197.979 18.334 198.912 18.7289 199.63 19.4828L198.015 22.283C197.476 21.924 196.938 21.7445 196.399 21.7445C195.753 21.7445 195.25 21.924 194.891 22.3189C194.532 22.7138 194.317 23.3241 194.317 24.1139V29.3554H190.332V18.5853H193.814L194.066 19.8777C194.748 18.8366 195.681 18.334 196.866 18.334Z" fill="#423BCA"/>
<path d="M204.802 16.252L204.443 15.6776H204.228V16.252H203.977V14.7441H204.515C204.659 14.7441 204.802 14.78 204.874 14.8877C204.946 14.9595 205.018 15.1031 205.018 15.2108C205.018 15.3185 204.982 15.3903 204.946 15.4621C204.874 15.5339 204.802 15.6057 204.695 15.6416L205.089 16.252H204.802ZM204.228 14.9595V15.4262H204.479C204.587 15.4262 204.659 15.3903 204.695 15.3544C204.73 15.3185 204.766 15.2467 204.766 15.1749C204.766 15.1031 204.73 15.0672 204.695 14.9954C204.659 14.9595 204.587 14.9236 204.515 14.9236H204.228V14.9595Z" fill="#423BCA"/>
<path d="M204.549 16.9345C203.759 16.9345 203.113 16.2883 203.113 15.4985C203.113 14.7087 203.759 14.0625 204.549 14.0625C205.339 14.0625 205.985 14.7087 205.985 15.4985C205.985 16.2883 205.339 16.9345 204.549 16.9345ZM204.549 14.3497C203.903 14.3497 203.401 14.8523 203.401 15.4985C203.401 16.1447 203.903 16.6473 204.549 16.6473C205.196 16.6473 205.698 16.1447 205.698 15.4985C205.698 14.8523 205.16 14.3497 204.549 14.3497Z" fill="#423BCA"/>
</svg>
