<svg width="661" height="512" viewBox="0 0 661 512" fill="none" xmlns="http://www.w3.org/2000/svg">
<path d="M228.157 505.272L140.109 417.225L554.383 3.18672C558.632 -1.06224 565.478 -1.06224 569.727 3.18672L657.775 91.2347C662.024 95.4836 662.024 102.329 657.775 106.578L258.844 505.509C250.346 513.77 236.655 513.77 228.157 505.272Z" fill="#423BCA"/>
<path d="M101.861 173.854C100.917 173.854 99.9725 174.327 99.2644 175.035L1.06615 273.233C-0.350174 274.649 -0.350174 277.01 1.06615 278.426L228.386 505.746C232.635 509.995 238.3 512.119 243.729 512.119C249.394 512.119 254.824 509.995 259.073 505.746L347.121 417.698L259.309 505.51C255.06 509.759 249.394 511.883 243.965 511.883C238.3 511.883 232.871 509.759 228.622 505.51L140.574 417.462L243.965 314.07L104.458 175.035C103.749 174.091 102.805 173.854 101.861 173.854Z" fill="#26FFD0"/>
<path d="M243.501 314.069L140.109 417.461L228.157 505.509C232.406 509.758 238.072 511.882 243.501 511.882C249.166 511.882 254.595 509.758 258.844 505.509L346.656 417.697L243.501 314.069Z" fill="#0AE2C8"/>
<path d="M292.355 163.703C263.793 192.265 217.526 192.265 188.964 163.703L188.02 162.759C159.457 134.196 159.457 87.9296 188.02 59.3672C216.582 30.8047 262.848 30.8047 291.411 59.3672L292.355 60.3114C320.918 88.8739 320.918 135.14 292.355 163.703Z" fill="#423BCA"/>
</svg>
